<?xml version="1.0" encoding="UTF-8"?>
<svg xmlns="http://www.w3.org/2000/svg" viewBox="0 0 1600 900" font-family="Segoe UI, Helvetica, sans-serif">
  <defs>
    <linearGradient id="grad1" x1="0%" y1="0%" x2="0%" y2="100%">
      <stop offset="0%" style="stop-color:#00695C;stop-opacity:1" />
      <stop offset="100%" style="stop-color:#004D40;stop-opacity:1" />
    </linearGradient>
    <linearGradient id="cardGrad" x1="0%" y1="0%" x2="0%" y2="100%">
      <stop offset="0%" style="stop-color:#FFFFFF;stop-opacity:1" />
      <stop offset="100%" style="stop-color:#F5F5F5;stop-opacity:1" />
    </linearGradient>
    <filter id="shadow" x="-2%" y="-2%" width="104%" height="104%">
      <feGaussianBlur in="SourceAlpha" stdDeviation="3"/>
      <feOffset dx="0" dy="2" result="offsetblur"/>
      <feComponentTransfer><feFuncA type="linear" slope="0.2"/></feComponentTransfer>
      <feMerge><feMergeNode/><feMergeNode in="SourceGraphic"/></feMerge>
    </filter>
  </defs>

  <rect width="1600" height="900" fill="#F5F5F5"/>

  <!-- Cabecalho -->
  <rect x="0" y="0" width="1600" height="80" fill="url(#grad1)"/>
  <circle cx="45" cy="40" r="20" fill="#26A69A"/>
  <text x="45" y="47" text-anchor="middle" font-size="22" font-weight="bold" fill="white">P</text>
  <text x="80" y="35" font-size="20" font-weight="bold" fill="white">PharmaSystem</text>
  <text x="80" y="58" font-size="13" fill="#B2DFDB">Dashboard Executivo — Clientes</text>
  <text x="1580" y="35" text-anchor="end" font-size="12" fill="#B2DFDB">Atualizado: 10/07/2026</text>
  <text x="1580" y="58" text-anchor="end" font-size="12" fill="#B2DFDB">v1.0</text>

  <!-- Botoes de navegacao -->
  <g transform="translate(30, 100)">
    <rect x="0" y="0" width="150" height="35" rx="4" fill="#FFFFFF" stroke="#00695C" stroke-width="1"/>
    <text x="75" y="23" text-anchor="middle" font-size="13" fill="#00695C">Visao Geral</text>
    <rect x="160" y="0" width="120" height="35" rx="4" fill="#FFFFFF" stroke="#00695C" stroke-width="1"/>
    <text x="220" y="23" text-anchor="middle" font-size="13" fill="#00695C">Produtos</text>
    <rect x="290" y="0" width="120" height="35" rx="4" fill="#00695C"/>
    <text x="350" y="23" text-anchor="middle" font-size="13" fill="white" font-weight="bold">Clientes</text>
  </g>

  <!-- Painel de filtros -->
  <g transform="translate(30, 160)">
    <rect x="0" y="0" width="220" height="700" fill="white" rx="4" filter="url(#shadow)"/>
    <text x="20" y="30" font-size="14" font-weight="bold" fill="#424242">FILTROS</text>
    <line x1="20" y1="42" x2="200" y2="42" stroke="#E0E0E0" stroke-width="1"/>

    <text x="20" y="70" font-size="12" font-weight="bold" fill="#616161">CIDADE</text>
    <g transform="translate(20, 80)">
      <rect x="0" y="0" width="180" height="30" fill="#F5F5F5" stroke="#BDBDBD" rx="3"/>
      <text x="10" y="20" font-size="12" fill="#424242">Todas (15) ▼</text>
    </g>

    <text x="20" y="140" font-size="12" font-weight="bold" fill="#616161">FAIXA ETARIA</text>
    <g transform="translate(20, 150)">
      <rect x="0" y="0" width="15" height="15" fill="#00695C" rx="2"/>
      <text x="22" y="12" font-size="11" fill="#424242">Todas</text>
      <rect x="0" y="22" width="15" height="15" fill="#FFFFFF" stroke="#BDBDBD" rx="2"/>
      <text x="22" y="34" font-size="11" fill="#424242">Ate 24 anos</text>
      <rect x="0" y="44" width="15" height="15" fill="#FFFFFF" stroke="#BDBDBD" rx="2"/>
      <text x="22" y="56" font-size="11" fill="#424242">25 a 34</text>
      <rect x="0" y="66" width="15" height="15" fill="#FFFFFF" stroke="#BDBDBD" rx="2"/>
      <text x="22" y="78" font-size="11" fill="#424242">35 a 44</text>
      <rect x="0" y="88" width="15" height="15" fill="#FFFFFF" stroke="#BDBDBD" rx="2"/>
      <text x="22" y="100" font-size="11" fill="#424242">45 a 59</text>
      <rect x="0" y="110" width="15" height="15" fill="#FFFFFF" stroke="#BDBDBD" rx="2"/>
      <text x="22" y="122" font-size="11" fill="#424242">60+ anos</text>
    </g>

    <text x="20" y="300" font-size="12" font-weight="bold" fill="#616161">STATUS DO CLIENTE</text>
    <g transform="translate(20, 310)">
      <rect x="0" y="0" width="60" height="30" fill="#00695C" rx="3"/>
      <text x="30" y="20" text-anchor="middle" font-size="11" fill="white" font-weight="bold">Todos</text>
      <rect x="65" y="0" width="60" height="30" fill="#FFFFFF" stroke="#BDBDBD" rx="3"/>
      <text x="95" y="20" text-anchor="middle" font-size="11" fill="#616161">Ativos</text>
      <rect x="130" y="0" width="60" height="30" fill="#FFFFFF" stroke="#BDBDBD" rx="3"/>
      <text x="160" y="20" text-anchor="middle" font-size="11" fill="#616161">Inativos</text>
    </g>

    <text x="20" y="380" font-size="12" font-weight="bold" fill="#616161">FILIAL</text>
    <g transform="translate(20, 390)">
      <rect x="0" y="0" width="180" height="30" fill="#F5F5F5" stroke="#BDBDBD" rx="3"/>
      <text x="10" y="20" font-size="12" fill="#424242">Todas (15) ▼</text>
    </g>

    <text x="20" y="450" font-size="12" font-weight="bold" fill="#616161">PERIODO</text>
    <g transform="translate(20, 460)">
      <rect x="0" y="0" width="180" height="30" fill="#F5F5F5" stroke="#BDBDBD" rx="3"/>
      <text x="10" y="20" font-size="12" fill="#424242">2026 completo ▼</text>
    </g>

    <g transform="translate(20, 620)">
      <rect x="0" y="0" width="180" height="35" fill="white" stroke="#00695C" rx="3"/>
      <text x="90" y="23" text-anchor="middle" font-size="12" fill="#00695C">↻ Limpar filtros</text>
    </g>
  </g>

  <!-- CARTOES KPI -->
  <g transform="translate(275, 160)">
    <rect x="0" y="0" width="240" height="120" fill="url(#cardGrad)" rx="6" filter="url(#shadow)"/>
    <rect x="0" y="0" width="6" height="120" fill="#7B1FA2"/>
    <text x="20" y="25" font-size="11" fill="#757575" font-weight="bold">TOTAL DE CLIENTES</text>
    <text x="20" y="70" font-size="32" font-weight="bold" fill="#7B1FA2">200</text>
    <text x="20" y="95" font-size="11" fill="#616161">Cadastrados na base</text>
    <text x="20" y="110" font-size="10" fill="#9E9E9E">De todas as cidades</text>
  </g>

  <g transform="translate(535, 160)">
    <rect x="0" y="0" width="240" height="120" fill="url(#cardGrad)" rx="6" filter="url(#shadow)"/>
    <rect x="0" y="0" width="6" height="120" fill="#4CAF50"/>
    <text x="20" y="25" font-size="11" fill="#757575" font-weight="bold">CLIENTES ATIVOS 90d</text>
    <text x="20" y="70" font-size="32" font-weight="bold" fill="#4CAF50">147</text>
    <text x="20" y="95" font-size="11" fill="#4CAF50">73,5% da base</text>
    <text x="20" y="110" font-size="10" fill="#9E9E9E">Compraram nos ultimos 90 dias</text>
  </g>

  <g transform="translate(795, 160)">
    <rect x="0" y="0" width="240" height="120" fill="url(#cardGrad)" rx="6" filter="url(#shadow)"/>
    <rect x="0" y="0" width="6" height="120" fill="#EF6C00"/>
    <text x="20" y="25" font-size="11" fill="#757575" font-weight="bold">CLIENTES INATIVOS</text>
    <text x="20" y="70" font-size="32" font-weight="bold" fill="#EF6C00">53</text>
    <text x="20" y="95" font-size="11" fill="#EF5350">Sem compras ha 90+ dias</text>
    <text x="20" y="110" font-size="10" fill="#9E9E9E">Alvo de reativacao</text>
  </g>

  <g transform="translate(1055, 160)">
    <rect x="0" y="0" width="240" height="120" fill="url(#cardGrad)" rx="6" filter="url(#shadow)"/>
    <rect x="0" y="0" width="6" height="120" fill="#00695C"/>
    <text x="20" y="25" font-size="11" fill="#757575" font-weight="bold">LTV MEDIO</text>
    <text x="20" y="70" font-size="32" font-weight="bold" fill="#00695C">R$ 1.223</text>
    <text x="20" y="95" font-size="11" fill="#616161">Por cliente ativo</text>
    <text x="20" y="110" font-size="10" fill="#9E9E9E">Lifetime Value total</text>
  </g>

  <g transform="translate(1315, 160)">
    <rect x="0" y="0" width="255" height="120" fill="url(#cardGrad)" rx="6" filter="url(#shadow)"/>
    <rect x="0" y="0" width="6" height="120" fill="#1976D2"/>
    <text x="20" y="25" font-size="11" fill="#757575" font-weight="bold">NOVOS CLIENTES (MES)</text>
    <text x="20" y="70" font-size="32" font-weight="bold" fill="#1976D2">8</text>
    <text x="20" y="95" font-size="11" fill="#4CAF50">▲ +33% vs mes anterior</text>
    <text x="20" y="110" font-size="10" fill="#9E9E9E">Meta: 12/mes</text>
  </g>

  <!-- TOP 10 CLIENTES -->
  <g transform="translate(275, 300)">
    <rect x="0" y="0" width="760" height="290" fill="white" rx="6" filter="url(#shadow)"/>
    <text x="20" y="30" font-size="14" font-weight="bold" fill="#424242">Top 10 Clientes por LTV</text>
    <text x="20" y="48" font-size="11" fill="#9E9E9E">Lifetime Value — valor total gasto</text>

    <line x1="15" y1="63" x2="745" y2="63" stroke="#E0E0E0"/>
    <g font-size="10" font-weight="bold" fill="#757575">
      <text x="20" y="80">CLIENTE</text>
      <text x="290" y="80">CIDADE</text>
      <text x="450" y="80" text-anchor="middle">COMPRAS</text>
      <text x="580" y="80" text-anchor="end">TICKET</text>
      <text x="720" y="80" text-anchor="end">LTV</text>
    </g>
    <line x1="15" y1="88" x2="745" y2="88" stroke="#E0E0E0"/>

    <g font-size="11" fill="#424242">
      <text x="20" y="108">Marcos Silva Rodrigues</text>
      <text x="290" y="108" fill="#616161">Belo Horizonte</text>
      <text x="450" y="108" text-anchor="middle">14</text>
      <text x="580" y="108" text-anchor="end">R$ 215,4</text>
      <text x="720" y="108" text-anchor="end" font-weight="bold" fill="#00695C">R$ 3.015</text>
      <line x1="15" y1="118" x2="745" y2="118" stroke="#F5F5F5"/>

      <text x="20" y="132">Ana Ferreira Alves</text>
      <text x="290" y="132" fill="#616161">Montes Claros</text>
      <text x="450" y="132" text-anchor="middle">12</text>
      <text x="580" y="132" text-anchor="end">R$ 189,7</text>
      <text x="720" y="132" text-anchor="end" font-weight="bold" fill="#00695C">R$ 2.276</text>
      <line x1="15" y1="142" x2="745" y2="142" stroke="#F5F5F5"/>

      <text x="20" y="156">Eduarda Santos Costa</text>
      <text x="290" y="156" fill="#616161">Uberlandia</text>
      <text x="450" y="156" text-anchor="middle">11</text>
      <text x="580" y="156" text-anchor="end">R$ 205,3</text>
      <text x="720" y="156" text-anchor="end" font-weight="bold" fill="#00695C">R$ 2.259</text>
      <line x1="15" y1="166" x2="745" y2="166" stroke="#F5F5F5"/>

      <text x="20" y="180">Rodrigo Oliveira Mendes</text>
      <text x="290" y="180" fill="#616161">Montes Claros</text>
      <text x="450" y="180" text-anchor="middle">10</text>
      <text x="580" y="180" text-anchor="end">R$ 218,1</text>
      <text x="720" y="180" text-anchor="end" font-weight="bold" fill="#00695C">R$ 2.181</text>
      <line x1="15" y1="190" x2="745" y2="190" stroke="#F5F5F5"/>

      <text x="20" y="204">Julia Barbosa Souza</text>
      <text x="290" y="204" fill="#616161">Belo Horizonte</text>
      <text x="450" y="204" text-anchor="middle">10</text>
      <text x="580" y="204" text-anchor="end">R$ 197,2</text>
      <text x="720" y="204" text-anchor="end" font-weight="bold" fill="#00695C">R$ 1.972</text>
      <line x1="15" y1="214" x2="745" y2="214" stroke="#F5F5F5"/>

      <text x="20" y="228">Vinicius Lima Ribeiro</text>
      <text x="290" y="228" fill="#616161">Janauba</text>
      <text x="450" y="228" text-anchor="middle">9</text>
      <text x="580" y="228" text-anchor="end">R$ 210,5</text>
      <text x="720" y="228" text-anchor="end" font-weight="bold" fill="#00695C">R$ 1.895</text>
      <line x1="15" y1="238" x2="745" y2="238" stroke="#F5F5F5"/>

      <text x="20" y="252">Bruno Gomes Nascimento</text>
      <text x="290" y="252" fill="#616161">Diamantina</text>
      <text x="450" y="252" text-anchor="middle">9</text>
      <text x="580" y="252" text-anchor="end">R$ 195,8</text>
      <text x="720" y="252" text-anchor="end" font-weight="bold" fill="#00695C">R$ 1.762</text>
      <line x1="15" y1="262" x2="745" y2="262" stroke="#F5F5F5"/>

      <text x="20" y="276">Larissa Cavalcanti Alves</text>
      <text x="290" y="276" fill="#616161">Salinas</text>
      <text x="450" y="276" text-anchor="middle">8</text>
      <text x="580" y="276" text-anchor="end">R$ 213,2</text>
      <text x="720" y="276" text-anchor="end" font-weight="bold" fill="#00695C">R$ 1.706</text>
    </g>
  </g>

  <!-- SEGMENTACAO POR FAIXA ETARIA (barras horizontais) -->
  <g transform="translate(1055, 300)">
    <rect x="0" y="0" width="515" height="290" fill="white" rx="6" filter="url(#shadow)"/>
    <text x="20" y="30" font-size="14" font-weight="bold" fill="#424242">Segmentacao por Faixa Etaria</text>
    <text x="20" y="48" font-size="11" fill="#9E9E9E">Distribuicao da base de clientes</text>

    <g font-size="11" fill="#424242">
      <text x="20" y="90">60+ anos</text>
      <rect x="140" y="80" width="270" height="18" fill="#00695C" rx="1"/>
      <text x="415" y="93" font-size="11" fill="#00695C" font-weight="bold">52 clientes (26,0%)</text>

      <text x="20" y="125">45 a 59 anos</text>
      <rect x="140" y="115" width="255" height="18" fill="#00796B" rx="1"/>
      <text x="400" y="128" font-size="11" fill="#00796B" font-weight="bold">49 clientes (24,5%)</text>

      <text x="20" y="160">25 a 34 anos</text>
      <rect x="140" y="150" width="212" height="18" fill="#00897B" rx="1"/>
      <text x="357" y="163" font-size="11" fill="#00897B" font-weight="bold">41 clientes (20,5%)</text>

      <text x="20" y="195">Ate 24 anos</text>
      <rect x="140" y="185" width="182" height="18" fill="#26A69A" rx="1"/>
      <text x="327" y="198" font-size="11" fill="#26A69A" font-weight="bold">35 clientes (17,5%)</text>

      <text x="20" y="230">35 a 44 anos</text>
      <rect x="140" y="220" width="120" height="18" fill="#4DB6AC" rx="1"/>
      <text x="265" y="233" font-size="11" fill="#4DB6AC" font-weight="bold">23 clientes (11,5%)</text>
    </g>

    <!-- Insight -->
    <g transform="translate(20, 250)">
      <rect x="0" y="0" width="475" height="30" fill="#E0F2F1" stroke="#00695C" stroke-width="1" rx="4"/>
      <text x="15" y="20" font-size="11" fill="#00695C" font-weight="bold">Insight:</text>
      <text x="70" y="20" font-size="11" fill="#424242">50,5% da base tem 45+ anos. Foco em fidelizacao.</text>
    </g>
  </g>

  <!-- EVOLUCAO CADASTROS -->
  <g transform="translate(275, 610)">
    <rect x="0" y="0" width="760" height="250" fill="white" rx="6" filter="url(#shadow)"/>
    <text x="20" y="30" font-size="14" font-weight="bold" fill="#424242">Evolucao de Novos Cadastros por Mes</text>
    <text x="20" y="48" font-size="11" fill="#9E9E9E">Ultimos 12 meses</text>

    <line x1="50" y1="200" x2="720" y2="200" stroke="#E0E0E0"/>
    <line x1="50" y1="80" x2="50" y2="200" stroke="#E0E0E0"/>

    <line x1="50" y1="150" x2="720" y2="150" stroke="#F0F0F0" stroke-dasharray="2,2"/>
    <line x1="50" y1="120" x2="720" y2="120" stroke="#F0F0F0" stroke-dasharray="2,2"/>
    <line x1="50" y1="90" x2="720" y2="90" stroke="#F0F0F0" stroke-dasharray="2,2"/>

    <text x="42" y="204" text-anchor="end" font-size="10" fill="#9E9E9E">0</text>
    <text x="42" y="154" text-anchor="end" font-size="10" fill="#9E9E9E">4</text>
    <text x="42" y="124" text-anchor="end" font-size="10" fill="#9E9E9E">8</text>
    <text x="42" y="94" text-anchor="end" font-size="10" fill="#9E9E9E">12</text>

    <!-- Barras -->
    <g>
      <rect x="65" y="175" width="35" height="25" fill="#7B1FA2" rx="2"/>
      <text x="82" y="220" text-anchor="middle" font-size="10" fill="#9E9E9E">Jul/25</text>
      <text x="82" y="170" text-anchor="middle" font-size="9" fill="#7B1FA2" font-weight="bold">3</text>

      <rect x="120" y="165" width="35" height="35" fill="#7B1FA2" rx="2"/>
      <text x="137" y="220" text-anchor="middle" font-size="10" fill="#9E9E9E">Ago</text>
      <text x="137" y="160" text-anchor="middle" font-size="9" fill="#7B1FA2" font-weight="bold">5</text>

      <rect x="175" y="155" width="35" height="45" fill="#7B1FA2" rx="2"/>
      <text x="192" y="220" text-anchor="middle" font-size="10" fill="#9E9E9E">Set</text>
      <text x="192" y="150" text-anchor="middle" font-size="9" fill="#7B1FA2" font-weight="bold">6</text>

      <rect x="230" y="140" width="35" height="60" fill="#7B1FA2" rx="2"/>
      <text x="247" y="220" text-anchor="middle" font-size="10" fill="#9E9E9E">Out</text>
      <text x="247" y="135" text-anchor="middle" font-size="9" fill="#7B1FA2" font-weight="bold">8</text>

      <rect x="285" y="125" width="35" height="75" fill="#7B1FA2" rx="2"/>
      <text x="302" y="220" text-anchor="middle" font-size="10" fill="#9E9E9E">Nov</text>
      <text x="302" y="120" text-anchor="middle" font-size="9" fill="#7B1FA2" font-weight="bold">10</text>

      <rect x="340" y="110" width="35" height="90" fill="#7B1FA2" rx="2"/>
      <text x="357" y="220" text-anchor="middle" font-size="10" fill="#9E9E9E">Dez</text>
      <text x="357" y="105" text-anchor="middle" font-size="9" fill="#7B1FA2" font-weight="bold">12</text>

      <rect x="395" y="130" width="35" height="70" fill="#7B1FA2" rx="2"/>
      <text x="412" y="220" text-anchor="middle" font-size="10" fill="#9E9E9E">Jan/26</text>
      <text x="412" y="125" text-anchor="middle" font-size="9" fill="#7B1FA2" font-weight="bold">9</text>

      <rect x="450" y="140" width="35" height="60" fill="#7B1FA2" rx="2"/>
      <text x="467" y="220" text-anchor="middle" font-size="10" fill="#9E9E9E">Fev</text>
      <text x="467" y="135" text-anchor="middle" font-size="9" fill="#7B1FA2" font-weight="bold">8</text>

      <rect x="505" y="150" width="35" height="50" fill="#7B1FA2" rx="2"/>
      <text x="522" y="220" text-anchor="middle" font-size="10" fill="#9E9E9E">Mar</text>
      <text x="522" y="145" text-anchor="middle" font-size="9" fill="#7B1FA2" font-weight="bold">7</text>

      <rect x="560" y="160" width="35" height="40" fill="#7B1FA2" rx="2"/>
      <text x="577" y="220" text-anchor="middle" font-size="10" fill="#9E9E9E">Abr</text>
      <text x="577" y="155" text-anchor="middle" font-size="9" fill="#7B1FA2" font-weight="bold">5</text>

      <rect x="615" y="150" width="35" height="50" fill="#7B1FA2" rx="2"/>
      <text x="632" y="220" text-anchor="middle" font-size="10" fill="#9E9E9E">Mai</text>
      <text x="632" y="145" text-anchor="middle" font-size="9" fill="#7B1FA2" font-weight="bold">7</text>

      <rect x="670" y="140" width="35" height="60" fill="#00695C" rx="2"/>
      <text x="687" y="220" text-anchor="middle" font-size="10" fill="#9E9E9E">Jun</text>
      <text x="687" y="135" text-anchor="middle" font-size="9" fill="#00695C" font-weight="bold">8</text>
    </g>
  </g>

  <!-- DISTRIBUICAO GEOGRAFICA -->
  <g transform="translate(1055, 610)">
    <rect x="0" y="0" width="515" height="250" fill="white" rx="6" filter="url(#shadow)"/>
    <text x="20" y="30" font-size="14" font-weight="bold" fill="#424242">Distribuicao Geografica</text>
    <text x="20" y="48" font-size="11" fill="#9E9E9E">Top cidades por numero de clientes</text>

    <g font-size="11" fill="#424242">
      <text x="20" y="80">Montes Claros</text>
      <rect x="160" y="70" width="180" height="16" fill="#00695C" rx="1"/>
      <text x="345" y="82" font-size="11" fill="#00695C" font-weight="bold">32 clientes</text>

      <text x="20" y="105">Belo Horizonte</text>
      <rect x="160" y="95" width="135" height="16" fill="#00796B" rx="1"/>
      <text x="300" y="107" font-size="11" fill="#00796B" font-weight="bold">24</text>

      <text x="20" y="130">Uberlandia</text>
      <rect x="160" y="120" width="120" height="16" fill="#00897B" rx="1"/>
      <text x="285" y="132" font-size="11" fill="#00897B" font-weight="bold">21</text>

      <text x="20" y="155">Janauba</text>
      <rect x="160" y="145" width="95" height="16" fill="#009688" rx="1"/>
      <text x="260" y="157" font-size="11" fill="#009688" font-weight="bold">17</text>

      <text x="20" y="180">Diamantina</text>
      <rect x="160" y="170" width="80" height="16" fill="#26A69A" rx="1"/>
      <text x="245" y="182" font-size="11" fill="#26A69A" font-weight="bold">14</text>

      <text x="20" y="205">Salinas</text>
      <rect x="160" y="195" width="72" height="16" fill="#4DB6AC" rx="1"/>
      <text x="237" y="207" font-size="11" fill="#4DB6AC" font-weight="bold">13</text>

      <text x="20" y="230">Outras (9)</text>
      <rect x="160" y="220" width="220" height="16" fill="#80CBC4" rx="1"/>
      <text x="385" y="232" font-size="11" fill="#4DB6AC" font-weight="bold">79 clientes</text>
    </g>
  </g>

  <text x="800" y="890" text-anchor="middle" font-size="10" fill="#9E9E9E">Fonte: PostgreSQL PharmaSystem — Modulo 01 | Ultima atualizacao: 10/07/2026 06:00</text>
</svg>
