<?xml version="1.0" encoding="UTF-8" standalone="no"?>
<!DOCTYPE svg PUBLIC "-//W3C//DTD SVG 1.1//EN"
 "http://www.w3.org/Graphics/SVG/1.1/DTD/svg11.dtd">
<!-- Generated by graphviz version 2.43.0 (0)
 -->
<!-- Title: PharmaSystem_ER Pages: 1 -->
<svg width="861pt" height="803pt"
 viewBox="0.00 0.00 861.20 803.20" xmlns="http://www.w3.org/2000/svg" xmlns:xlink="http://www.w3.org/1999/xlink">
<g id="graph0" class="graph" transform="scale(1 1) rotate(0) translate(21.6 781.6)">
<title>PharmaSystem_ER</title>
<polygon fill="white" stroke="transparent" points="-21.6,21.6 -21.6,-781.6 839.6,-781.6 839.6,21.6 -21.6,21.6"/>
<!-- FILIAIS -->
<g id="node1" class="node">
<title>FILIAIS</title>
<polygon fill="#1f6091" stroke="transparent" points="16.5,-549 16.5,-575 207.5,-575 207.5,-549 16.5,-549"/>
<polygon fill="none" stroke="black" points="16.5,-549 16.5,-575 207.5,-575 207.5,-549 16.5,-549"/>
<text text-anchor="start" x="90.5" y="-560.2" font-family="Helvetica,sans-Serif" font-weight="bold" font-size="11.00" fill="white">FILIAIS</text>
<polygon fill="none" stroke="black" points="16.5,-523 16.5,-549 108.5,-549 108.5,-523 16.5,-523"/>
<text text-anchor="start" x="23.5" y="-534.2" font-family="Helvetica,sans-Serif" font-weight="bold" font-size="11.00">id</text>
<polygon fill="none" stroke="black" points="108.5,-523 108.5,-549 207.5,-549 207.5,-523 108.5,-523"/>
<text text-anchor="start" x="115.5" y="-533.2" font-family="Helvetica,sans-Serif" font-size="11.00">PK (int)</text>
<polygon fill="none" stroke="black" points="16.5,-497 16.5,-523 108.5,-523 108.5,-497 16.5,-497"/>
<text text-anchor="start" x="23.5" y="-507.2" font-family="Helvetica,sans-Serif" font-size="11.00">codigo</text>
<polygon fill="none" stroke="black" points="108.5,-497 108.5,-523 207.5,-523 207.5,-497 108.5,-497"/>
<text text-anchor="start" x="115.5" y="-507.2" font-family="Helvetica,sans-Serif" font-size="11.00">UK varchar(10)</text>
<polygon fill="none" stroke="black" points="16.5,-471 16.5,-497 108.5,-497 108.5,-471 16.5,-471"/>
<text text-anchor="start" x="23.5" y="-481.2" font-family="Helvetica,sans-Serif" font-size="11.00">nome</text>
<polygon fill="none" stroke="black" points="108.5,-471 108.5,-497 207.5,-497 207.5,-471 108.5,-471"/>
<text text-anchor="start" x="115.5" y="-481.2" font-family="Helvetica,sans-Serif" font-size="11.00">varchar(100)</text>
<polygon fill="none" stroke="black" points="16.5,-445 16.5,-471 108.5,-471 108.5,-445 16.5,-445"/>
<text text-anchor="start" x="23.5" y="-455.2" font-family="Helvetica,sans-Serif" font-size="11.00">cidade</text>
<polygon fill="none" stroke="black" points="108.5,-445 108.5,-471 207.5,-471 207.5,-445 108.5,-445"/>
<text text-anchor="start" x="115.5" y="-455.2" font-family="Helvetica,sans-Serif" font-size="11.00">varchar(80)</text>
<polygon fill="none" stroke="black" points="16.5,-419 16.5,-445 108.5,-445 108.5,-419 16.5,-419"/>
<text text-anchor="start" x="23.5" y="-429.2" font-family="Helvetica,sans-Serif" font-size="11.00">estado</text>
<polygon fill="none" stroke="black" points="108.5,-419 108.5,-445 207.5,-445 207.5,-419 108.5,-419"/>
<text text-anchor="start" x="115.5" y="-429.2" font-family="Helvetica,sans-Serif" font-size="11.00">char(2)</text>
<polygon fill="none" stroke="black" points="16.5,-393 16.5,-419 108.5,-419 108.5,-393 16.5,-393"/>
<text text-anchor="start" x="23.5" y="-403.2" font-family="Helvetica,sans-Serif" font-size="11.00">endereco</text>
<polygon fill="none" stroke="black" points="108.5,-393 108.5,-419 207.5,-419 207.5,-393 108.5,-393"/>
<text text-anchor="start" x="115.5" y="-403.2" font-family="Helvetica,sans-Serif" font-size="11.00">varchar(200)</text>
<polygon fill="none" stroke="black" points="16.5,-367 16.5,-393 108.5,-393 108.5,-367 16.5,-367"/>
<text text-anchor="start" x="23.5" y="-377.2" font-family="Helvetica,sans-Serif" font-size="11.00">telefone</text>
<polygon fill="none" stroke="black" points="108.5,-367 108.5,-393 207.5,-393 207.5,-367 108.5,-367"/>
<text text-anchor="start" x="115.5" y="-377.2" font-family="Helvetica,sans-Serif" font-size="11.00">varchar(20)</text>
<polygon fill="none" stroke="black" points="16.5,-341 16.5,-367 108.5,-367 108.5,-341 16.5,-341"/>
<text text-anchor="start" x="23.5" y="-351.2" font-family="Helvetica,sans-Serif" font-size="11.00">data_abertura</text>
<polygon fill="none" stroke="black" points="108.5,-341 108.5,-367 207.5,-367 207.5,-341 108.5,-341"/>
<text text-anchor="start" x="115.5" y="-351.2" font-family="Helvetica,sans-Serif" font-size="11.00">date</text>
<polygon fill="none" stroke="black" points="16.5,-315 16.5,-341 108.5,-341 108.5,-315 16.5,-315"/>
<text text-anchor="start" x="23.5" y="-325.2" font-family="Helvetica,sans-Serif" font-size="11.00">ativa</text>
<polygon fill="none" stroke="black" points="108.5,-315 108.5,-341 207.5,-341 207.5,-315 108.5,-315"/>
<text text-anchor="start" x="115.5" y="-325.2" font-family="Helvetica,sans-Serif" font-size="11.00">boolean</text>
</g>
<!-- ESTOQUE -->
<g id="node4" class="node">
<title>ESTOQUE</title>
<polygon fill="#6a1b9a" stroke="transparent" points="627.5,-649 627.5,-675 809.5,-675 809.5,-649 627.5,-649"/>
<polygon fill="none" stroke="black" points="627.5,-649 627.5,-675 809.5,-675 809.5,-649 627.5,-649"/>
<text text-anchor="start" x="689.5" y="-660.2" font-family="Helvetica,sans-Serif" font-weight="bold" font-size="11.00" fill="white">ESTOQUE</text>
<polygon fill="none" stroke="black" points="627.5,-623 627.5,-649 735.5,-649 735.5,-623 627.5,-623"/>
<text text-anchor="start" x="634.5" y="-634.2" font-family="Helvetica,sans-Serif" font-weight="bold" font-size="11.00">id</text>
<polygon fill="none" stroke="black" points="735.5,-623 735.5,-649 809.5,-649 809.5,-623 735.5,-623"/>
<text text-anchor="start" x="742.5" y="-633.2" font-family="Helvetica,sans-Serif" font-size="11.00">PK (int)</text>
<polygon fill="none" stroke="black" points="627.5,-597 627.5,-623 735.5,-623 735.5,-597 627.5,-597"/>
<text text-anchor="start" x="634.5" y="-608.2" font-family="Helvetica,sans-Serif" font-style="italic" font-size="11.00">produto_id</text>
<polygon fill="none" stroke="black" points="735.5,-597 735.5,-623 809.5,-623 809.5,-597 735.5,-597"/>
<text text-anchor="start" x="742.5" y="-607.2" font-family="Helvetica,sans-Serif" font-size="11.00">FK (int)</text>
<polygon fill="none" stroke="black" points="627.5,-571 627.5,-597 735.5,-597 735.5,-571 627.5,-571"/>
<text text-anchor="start" x="634.5" y="-582.2" font-family="Helvetica,sans-Serif" font-style="italic" font-size="11.00">filial_id</text>
<polygon fill="none" stroke="black" points="735.5,-571 735.5,-597 809.5,-597 809.5,-571 735.5,-571"/>
<text text-anchor="start" x="742.5" y="-581.2" font-family="Helvetica,sans-Serif" font-size="11.00">FK (int)</text>
<polygon fill="none" stroke="black" points="627.5,-545 627.5,-571 735.5,-571 735.5,-545 627.5,-545"/>
<text text-anchor="start" x="634.5" y="-555.2" font-family="Helvetica,sans-Serif" font-size="11.00">quantidade</text>
<polygon fill="none" stroke="black" points="735.5,-545 735.5,-571 809.5,-571 809.5,-545 735.5,-545"/>
<text text-anchor="start" x="742.5" y="-555.2" font-family="Helvetica,sans-Serif" font-size="11.00">int</text>
<polygon fill="none" stroke="black" points="627.5,-519 627.5,-545 735.5,-545 735.5,-519 627.5,-519"/>
<text text-anchor="start" x="634.5" y="-529.2" font-family="Helvetica,sans-Serif" font-size="11.00">data_atualizacao</text>
<polygon fill="none" stroke="black" points="735.5,-519 735.5,-545 809.5,-545 809.5,-519 735.5,-519"/>
<text text-anchor="start" x="742.5" y="-529.2" font-family="Helvetica,sans-Serif" font-size="11.00">timestamp</text>
</g>
<!-- FILIAIS&#45;&gt;ESTOQUE -->
<g id="edge4" class="edge">
<title>FILIAIS&#45;&gt;ESTOQUE</title>
<path fill="none" stroke="#555555" d="M215.24,-520.05C263.67,-555.43 311,-590 311,-590 311,-590 490.71,-593.09 611.15,-595.17"/>
<polygon fill="#555555" stroke="#555555" points="611.36,-595.17 619.29,-598.91 615.36,-595.24 619.36,-595.31 619.36,-595.31 619.36,-595.31 615.36,-595.24 619.42,-591.71 611.36,-595.17 611.36,-595.17"/>
<text text-anchor="middle" x="421" y="-595.8" font-family="Helvetica,sans-Serif" font-size="9.00">1 : N</text>
</g>
<!-- VENDAS -->
<g id="node6" class="node">
<title>VENDAS</title>
<polygon fill="#c62828" stroke="transparent" points="319,-212 319,-238 523,-238 523,-212 319,-212"/>
<polygon fill="none" stroke="black" points="319,-212 319,-238 523,-238 523,-212 319,-212"/>
<text text-anchor="start" x="395.5" y="-223.2" font-family="Helvetica,sans-Serif" font-weight="bold" font-size="11.00" fill="white">VENDAS</text>
<polygon fill="none" stroke="black" points="319,-186 319,-212 433,-212 433,-186 319,-186"/>
<text text-anchor="start" x="326" y="-197.2" font-family="Helvetica,sans-Serif" font-weight="bold" font-size="11.00">id</text>
<polygon fill="none" stroke="black" points="433,-186 433,-212 523,-212 523,-186 433,-186"/>
<text text-anchor="start" x="440" y="-196.2" font-family="Helvetica,sans-Serif" font-size="11.00">PK (int)</text>
<polygon fill="none" stroke="black" points="319,-160 319,-186 433,-186 433,-160 319,-160"/>
<text text-anchor="start" x="326" y="-171.2" font-family="Helvetica,sans-Serif" font-style="italic" font-size="11.00">filial_id</text>
<polygon fill="none" stroke="black" points="433,-160 433,-186 523,-186 523,-160 433,-160"/>
<text text-anchor="start" x="440" y="-170.2" font-family="Helvetica,sans-Serif" font-size="11.00">FK (int)</text>
<polygon fill="none" stroke="black" points="319,-134 319,-160 433,-160 433,-134 319,-134"/>
<text text-anchor="start" x="326" y="-145.2" font-family="Helvetica,sans-Serif" font-style="italic" font-size="11.00">cliente_id</text>
<polygon fill="none" stroke="black" points="433,-134 433,-160 523,-160 523,-134 433,-134"/>
<text text-anchor="start" x="440" y="-144.2" font-family="Helvetica,sans-Serif" font-size="11.00">FK (int)</text>
<polygon fill="none" stroke="black" points="319,-108 319,-134 433,-134 433,-108 319,-108"/>
<text text-anchor="start" x="326" y="-118.2" font-family="Helvetica,sans-Serif" font-size="11.00">data_venda</text>
<polygon fill="none" stroke="black" points="433,-108 433,-134 523,-134 523,-108 433,-108"/>
<text text-anchor="start" x="440" y="-118.2" font-family="Helvetica,sans-Serif" font-size="11.00">timestamp</text>
<polygon fill="none" stroke="black" points="319,-82 319,-108 433,-108 433,-82 319,-82"/>
<text text-anchor="start" x="326" y="-92.2" font-family="Helvetica,sans-Serif" font-size="11.00">valor_total</text>
<polygon fill="none" stroke="black" points="433,-82 433,-108 523,-108 523,-82 433,-82"/>
<text text-anchor="start" x="440" y="-92.2" font-family="Helvetica,sans-Serif" font-size="11.00">decimal(10,2)</text>
<polygon fill="none" stroke="black" points="319,-56 319,-82 433,-82 433,-56 319,-56"/>
<text text-anchor="start" x="326" y="-66.2" font-family="Helvetica,sans-Serif" font-size="11.00">desconto</text>
<polygon fill="none" stroke="black" points="433,-56 433,-82 523,-82 523,-56 433,-56"/>
<text text-anchor="start" x="440" y="-66.2" font-family="Helvetica,sans-Serif" font-size="11.00">decimal(10,2)</text>
<polygon fill="none" stroke="black" points="319,-30 319,-56 433,-56 433,-30 319,-30"/>
<text text-anchor="start" x="326" y="-40.2" font-family="Helvetica,sans-Serif" font-size="11.00">forma_pagamento</text>
<polygon fill="none" stroke="black" points="433,-30 433,-56 523,-56 523,-30 433,-30"/>
<text text-anchor="start" x="440" y="-40.2" font-family="Helvetica,sans-Serif" font-size="11.00">varchar(20)</text>
<polygon fill="none" stroke="black" points="319,-4 319,-30 433,-30 433,-4 319,-4"/>
<text text-anchor="start" x="326" y="-14.2" font-family="Helvetica,sans-Serif" font-size="11.00">status</text>
<polygon fill="none" stroke="black" points="433,-4 433,-30 523,-30 523,-4 433,-4"/>
<text text-anchor="start" x="440" y="-14.2" font-family="Helvetica,sans-Serif" font-size="11.00">varchar(20)</text>
</g>
<!-- FILIAIS&#45;&gt;VENDAS -->
<g id="edge5" class="edge">
<title>FILIAIS&#45;&gt;VENDAS</title>
<path fill="none" stroke="#555555" d="M215.32,-336.66C244.13,-306.31 275.63,-273.12 305.09,-242.08"/>
<polygon fill="#555555" stroke="#555555" points="305.44,-241.7 313.56,-238.38 308.2,-238.8 310.95,-235.9 310.95,-235.9 310.95,-235.9 308.2,-238.8 308.34,-233.42 305.44,-241.7 305.44,-241.7"/>
<text text-anchor="middle" x="267" y="-295.8" font-family="Helvetica,sans-Serif" font-size="9.00">1 : N</text>
</g>
<!-- CATEGORIAS -->
<g id="node2" class="node">
<title>CATEGORIAS</title>
<polygon fill="#2e7d32" stroke="transparent" points="28.5,-730 28.5,-756 194.5,-756 194.5,-730 28.5,-730"/>
<polygon fill="none" stroke="black" points="28.5,-730 28.5,-756 194.5,-756 194.5,-730 28.5,-730"/>
<text text-anchor="start" x="72.5" y="-741.2" font-family="Helvetica,sans-Serif" font-weight="bold" font-size="11.00" fill="white">CATEGORIAS</text>
<polygon fill="none" stroke="black" points="28.5,-704 28.5,-730 95.5,-730 95.5,-704 28.5,-704"/>
<text text-anchor="start" x="35.5" y="-715.2" font-family="Helvetica,sans-Serif" font-weight="bold" font-size="11.00">id</text>
<polygon fill="none" stroke="black" points="95.5,-704 95.5,-730 194.5,-730 194.5,-704 95.5,-704"/>
<text text-anchor="start" x="102.5" y="-714.2" font-family="Helvetica,sans-Serif" font-size="11.00">PK (int)</text>
<polygon fill="none" stroke="black" points="28.5,-678 28.5,-704 95.5,-704 95.5,-678 28.5,-678"/>
<text text-anchor="start" x="35.5" y="-688.2" font-family="Helvetica,sans-Serif" font-size="11.00">nome</text>
<polygon fill="none" stroke="black" points="95.5,-678 95.5,-704 194.5,-704 194.5,-678 95.5,-678"/>
<text text-anchor="start" x="102.5" y="-688.2" font-family="Helvetica,sans-Serif" font-size="11.00">UK varchar(80)</text>
<polygon fill="none" stroke="black" points="28.5,-652 28.5,-678 95.5,-678 95.5,-652 28.5,-652"/>
<text text-anchor="start" x="35.5" y="-662.2" font-family="Helvetica,sans-Serif" font-size="11.00">descricao</text>
<polygon fill="none" stroke="black" points="95.5,-652 95.5,-678 194.5,-678 194.5,-652 95.5,-652"/>
<text text-anchor="start" x="102.5" y="-662.2" font-family="Helvetica,sans-Serif" font-size="11.00">text</text>
</g>
<!-- PRODUTOS -->
<g id="node3" class="node">
<title>PRODUTOS</title>
<polygon fill="#2e7d32" stroke="transparent" points="319,-542 319,-568 523,-568 523,-542 319,-542"/>
<polygon fill="none" stroke="black" points="319,-542 319,-568 523,-568 523,-542 319,-542"/>
<text text-anchor="start" x="386.5" y="-553.2" font-family="Helvetica,sans-Serif" font-weight="bold" font-size="11.00" fill="white">PRODUTOS</text>
<polygon fill="none" stroke="black" points="319,-516 319,-542 424,-542 424,-516 319,-516"/>
<text text-anchor="start" x="326" y="-527.2" font-family="Helvetica,sans-Serif" font-weight="bold" font-size="11.00">id</text>
<polygon fill="none" stroke="black" points="424,-516 424,-542 523,-542 523,-516 424,-516"/>
<text text-anchor="start" x="431" y="-526.2" font-family="Helvetica,sans-Serif" font-size="11.00">PK (int)</text>
<polygon fill="none" stroke="black" points="319,-490 319,-516 424,-516 424,-490 319,-490"/>
<text text-anchor="start" x="326" y="-500.2" font-family="Helvetica,sans-Serif" font-size="11.00">codigo_barras</text>
<polygon fill="none" stroke="black" points="424,-490 424,-516 523,-516 523,-490 424,-490"/>
<text text-anchor="start" x="431" y="-500.2" font-family="Helvetica,sans-Serif" font-size="11.00">UK varchar(20)</text>
<polygon fill="none" stroke="black" points="319,-464 319,-490 424,-490 424,-464 319,-464"/>
<text text-anchor="start" x="326" y="-474.2" font-family="Helvetica,sans-Serif" font-size="11.00">nome</text>
<polygon fill="none" stroke="black" points="424,-464 424,-490 523,-490 523,-464 424,-464"/>
<text text-anchor="start" x="431" y="-474.2" font-family="Helvetica,sans-Serif" font-size="11.00">varchar(150)</text>
<polygon fill="none" stroke="black" points="319,-438 319,-464 424,-464 424,-438 319,-438"/>
<text text-anchor="start" x="326" y="-449.2" font-family="Helvetica,sans-Serif" font-style="italic" font-size="11.00">categoria_id</text>
<polygon fill="none" stroke="black" points="424,-438 424,-464 523,-464 523,-438 424,-438"/>
<text text-anchor="start" x="431" y="-448.2" font-family="Helvetica,sans-Serif" font-size="11.00">FK (int)</text>
<polygon fill="none" stroke="black" points="319,-412 319,-438 424,-438 424,-412 319,-412"/>
<text text-anchor="start" x="326" y="-422.2" font-family="Helvetica,sans-Serif" font-size="11.00">fabricante</text>
<polygon fill="none" stroke="black" points="424,-412 424,-438 523,-438 523,-412 424,-412"/>
<text text-anchor="start" x="431" y="-422.2" font-family="Helvetica,sans-Serif" font-size="11.00">varchar(100)</text>
<polygon fill="none" stroke="black" points="319,-386 319,-412 424,-412 424,-386 319,-386"/>
<text text-anchor="start" x="326" y="-396.2" font-family="Helvetica,sans-Serif" font-size="11.00">preco_custo</text>
<polygon fill="none" stroke="black" points="424,-386 424,-412 523,-412 523,-386 424,-386"/>
<text text-anchor="start" x="431" y="-396.2" font-family="Helvetica,sans-Serif" font-size="11.00">decimal(10,2)</text>
<polygon fill="none" stroke="black" points="319,-360 319,-386 424,-386 424,-360 319,-360"/>
<text text-anchor="start" x="326" y="-370.2" font-family="Helvetica,sans-Serif" font-size="11.00">preco_venda</text>
<polygon fill="none" stroke="black" points="424,-360 424,-386 523,-386 523,-360 424,-360"/>
<text text-anchor="start" x="431" y="-370.2" font-family="Helvetica,sans-Serif" font-size="11.00">decimal(10,2)</text>
<polygon fill="none" stroke="black" points="319,-334 319,-360 424,-360 424,-334 319,-334"/>
<text text-anchor="start" x="326" y="-344.2" font-family="Helvetica,sans-Serif" font-size="11.00">estoque_minimo</text>
<polygon fill="none" stroke="black" points="424,-334 424,-360 523,-360 523,-334 424,-334"/>
<text text-anchor="start" x="431" y="-344.2" font-family="Helvetica,sans-Serif" font-size="11.00">int</text>
<polygon fill="none" stroke="black" points="319,-308 319,-334 424,-334 424,-308 319,-308"/>
<text text-anchor="start" x="326" y="-318.2" font-family="Helvetica,sans-Serif" font-size="11.00">exige_receita</text>
<polygon fill="none" stroke="black" points="424,-308 424,-334 523,-334 523,-308 424,-308"/>
<text text-anchor="start" x="431" y="-318.2" font-family="Helvetica,sans-Serif" font-size="11.00">boolean</text>
<polygon fill="none" stroke="black" points="319,-282 319,-308 424,-308 424,-282 319,-282"/>
<text text-anchor="start" x="326" y="-292.2" font-family="Helvetica,sans-Serif" font-size="11.00">ativo</text>
<polygon fill="none" stroke="black" points="424,-282 424,-308 523,-308 523,-282 424,-282"/>
<text text-anchor="start" x="431" y="-292.2" font-family="Helvetica,sans-Serif" font-size="11.00">boolean</text>
</g>
<!-- CATEGORIAS&#45;&gt;PRODUTOS -->
<g id="edge1" class="edge">
<title>CATEGORIAS&#45;&gt;PRODUTOS</title>
<path fill="none" stroke="#555555" d="M174.36,-647.88C211.79,-613.92 260.69,-569.54 305,-529.34"/>
<polygon fill="#555555" stroke="#555555" points="305.02,-529.32 313.36,-526.61 307.98,-526.64 310.94,-523.95 310.94,-523.95 310.94,-523.95 307.98,-526.64 308.52,-521.28 305.02,-529.32 305.02,-529.32"/>
<text text-anchor="middle" x="267" y="-574.8" font-family="Helvetica,sans-Serif" font-size="9.00">1 : N</text>
</g>
<!-- PRODUTOS&#45;&gt;ESTOQUE -->
<g id="edge3" class="edge">
<title>PRODUTOS&#45;&gt;ESTOQUE</title>
<path fill="none" stroke="#555555" d="M531.19,-488.56C557.76,-504.02 586.11,-520.52 612.47,-535.87"/>
<polygon fill="#555555" stroke="#555555" points="612.57,-535.93 617.68,-543.06 616.03,-537.94 619.49,-539.95 619.49,-539.95 619.49,-539.95 616.03,-537.94 621.3,-536.84 612.57,-535.93 612.57,-535.93"/>
<text text-anchor="middle" x="575" y="-519.8" font-family="Helvetica,sans-Serif" font-size="9.00">1 : N</text>
</g>
<!-- ITENS_VENDA -->
<g id="node7" class="node">
<title>ITENS_VENDA</title>
<polygon fill="#c62828" stroke="transparent" points="627.5,-402 627.5,-428 810.5,-428 810.5,-402 627.5,-402"/>
<polygon fill="none" stroke="black" points="627.5,-402 627.5,-428 810.5,-428 810.5,-402 627.5,-402"/>
<text text-anchor="start" x="677" y="-413.2" font-family="Helvetica,sans-Serif" font-weight="bold" font-size="11.00" fill="white">ITENS_VENDA</text>
<polygon fill="none" stroke="black" points="627.5,-376 627.5,-402 720.5,-402 720.5,-376 627.5,-376"/>
<text text-anchor="start" x="634.5" y="-387.2" font-family="Helvetica,sans-Serif" font-weight="bold" font-size="11.00">id</text>
<polygon fill="none" stroke="black" points="720.5,-376 720.5,-402 810.5,-402 810.5,-376 720.5,-376"/>
<text text-anchor="start" x="727.5" y="-386.2" font-family="Helvetica,sans-Serif" font-size="11.00">PK (int)</text>
<polygon fill="none" stroke="black" points="627.5,-350 627.5,-376 720.5,-376 720.5,-350 627.5,-350"/>
<text text-anchor="start" x="634.5" y="-361.2" font-family="Helvetica,sans-Serif" font-style="italic" font-size="11.00">venda_id</text>
<polygon fill="none" stroke="black" points="720.5,-350 720.5,-376 810.5,-376 810.5,-350 720.5,-350"/>
<text text-anchor="start" x="727.5" y="-360.2" font-family="Helvetica,sans-Serif" font-size="11.00">FK (int)</text>
<polygon fill="none" stroke="black" points="627.5,-324 627.5,-350 720.5,-350 720.5,-324 627.5,-324"/>
<text text-anchor="start" x="634.5" y="-335.2" font-family="Helvetica,sans-Serif" font-style="italic" font-size="11.00">produto_id</text>
<polygon fill="none" stroke="black" points="720.5,-324 720.5,-350 810.5,-350 810.5,-324 720.5,-324"/>
<text text-anchor="start" x="727.5" y="-334.2" font-family="Helvetica,sans-Serif" font-size="11.00">FK (int)</text>
<polygon fill="none" stroke="black" points="627.5,-298 627.5,-324 720.5,-324 720.5,-298 627.5,-298"/>
<text text-anchor="start" x="634.5" y="-308.2" font-family="Helvetica,sans-Serif" font-size="11.00">quantidade</text>
<polygon fill="none" stroke="black" points="720.5,-298 720.5,-324 810.5,-324 810.5,-298 720.5,-298"/>
<text text-anchor="start" x="727.5" y="-308.2" font-family="Helvetica,sans-Serif" font-size="11.00">int</text>
<polygon fill="none" stroke="black" points="627.5,-272 627.5,-298 720.5,-298 720.5,-272 627.5,-272"/>
<text text-anchor="start" x="634.5" y="-282.2" font-family="Helvetica,sans-Serif" font-size="11.00">preco_unitario</text>
<polygon fill="none" stroke="black" points="720.5,-272 720.5,-298 810.5,-298 810.5,-272 720.5,-272"/>
<text text-anchor="start" x="727.5" y="-282.2" font-family="Helvetica,sans-Serif" font-size="11.00">decimal(10,2)</text>
<polygon fill="none" stroke="black" points="627.5,-246 627.5,-272 720.5,-272 720.5,-246 627.5,-246"/>
<text text-anchor="start" x="634.5" y="-256.2" font-family="Helvetica,sans-Serif" font-size="11.00">subtotal</text>
<polygon fill="none" stroke="black" points="720.5,-246 720.5,-272 810.5,-272 810.5,-246 720.5,-246"/>
<text text-anchor="start" x="727.5" y="-256.2" font-family="Helvetica,sans-Serif" font-size="11.00">decimal(10,2)</text>
</g>
<!-- PRODUTOS&#45;&gt;ITENS_VENDA -->
<g id="edge2" class="edge">
<title>PRODUTOS&#45;&gt;ITENS_VENDA</title>
<path fill="none" stroke="#555555" d="M531.19,-392.48C557.12,-384.76 584.75,-376.53 610.57,-368.84"/>
<polygon fill="#555555" stroke="#555555" points="610.85,-368.76 619.55,-369.93 614.69,-367.62 618.52,-366.48 618.52,-366.48 618.52,-366.48 614.69,-367.62 617.49,-363.03 610.85,-368.76 610.85,-368.76"/>
<text text-anchor="middle" x="575" y="-383.8" font-family="Helvetica,sans-Serif" font-size="9.00">1 : N</text>
</g>
<!-- CLIENTES -->
<g id="node5" class="node">
<title>CLIENTES</title>
<polygon fill="#ef6c00" stroke="transparent" points="8.5,-212 8.5,-238 215.5,-238 215.5,-212 8.5,-212"/>
<polygon fill="none" stroke="black" points="8.5,-212 8.5,-238 215.5,-238 215.5,-212 8.5,-212"/>
<text text-anchor="start" x="82.5" y="-223.2" font-family="Helvetica,sans-Serif" font-weight="bold" font-size="11.00" fill="white">CLIENTES</text>
<polygon fill="none" stroke="black" points="8.5,-186 8.5,-212 116.5,-212 116.5,-186 8.5,-186"/>
<text text-anchor="start" x="15.5" y="-197.2" font-family="Helvetica,sans-Serif" font-weight="bold" font-size="11.00">id</text>
<polygon fill="none" stroke="black" points="116.5,-186 116.5,-212 215.5,-212 215.5,-186 116.5,-186"/>
<text text-anchor="start" x="123.5" y="-196.2" font-family="Helvetica,sans-Serif" font-size="11.00">PK (int)</text>
<polygon fill="none" stroke="black" points="8.5,-160 8.5,-186 116.5,-186 116.5,-160 8.5,-160"/>
<text text-anchor="start" x="15.5" y="-170.2" font-family="Helvetica,sans-Serif" font-size="11.00">nome</text>
<polygon fill="none" stroke="black" points="116.5,-160 116.5,-186 215.5,-186 215.5,-160 116.5,-160"/>
<text text-anchor="start" x="123.5" y="-170.2" font-family="Helvetica,sans-Serif" font-size="11.00">varchar(150)</text>
<polygon fill="none" stroke="black" points="8.5,-134 8.5,-160 116.5,-160 116.5,-134 8.5,-134"/>
<text text-anchor="start" x="15.5" y="-144.2" font-family="Helvetica,sans-Serif" font-size="11.00">cpf</text>
<polygon fill="none" stroke="black" points="116.5,-134 116.5,-160 215.5,-160 215.5,-134 116.5,-134"/>
<text text-anchor="start" x="123.5" y="-144.2" font-family="Helvetica,sans-Serif" font-size="11.00">UK varchar(14)</text>
<polygon fill="none" stroke="black" points="8.5,-108 8.5,-134 116.5,-134 116.5,-108 8.5,-108"/>
<text text-anchor="start" x="15.5" y="-118.2" font-family="Helvetica,sans-Serif" font-size="11.00">email</text>
<polygon fill="none" stroke="black" points="116.5,-108 116.5,-134 215.5,-134 215.5,-108 116.5,-108"/>
<text text-anchor="start" x="123.5" y="-118.2" font-family="Helvetica,sans-Serif" font-size="11.00">varchar(120)</text>
<polygon fill="none" stroke="black" points="8.5,-82 8.5,-108 116.5,-108 116.5,-82 8.5,-82"/>
<text text-anchor="start" x="15.5" y="-92.2" font-family="Helvetica,sans-Serif" font-size="11.00">telefone</text>
<polygon fill="none" stroke="black" points="116.5,-82 116.5,-108 215.5,-108 215.5,-82 116.5,-82"/>
<text text-anchor="start" x="123.5" y="-92.2" font-family="Helvetica,sans-Serif" font-size="11.00">varchar(20)</text>
<polygon fill="none" stroke="black" points="8.5,-56 8.5,-82 116.5,-82 116.5,-56 8.5,-56"/>
<text text-anchor="start" x="15.5" y="-66.2" font-family="Helvetica,sans-Serif" font-size="11.00">data_nascimento</text>
<polygon fill="none" stroke="black" points="116.5,-56 116.5,-82 215.5,-82 215.5,-56 116.5,-56"/>
<text text-anchor="start" x="123.5" y="-66.2" font-family="Helvetica,sans-Serif" font-size="11.00">date</text>
<polygon fill="none" stroke="black" points="8.5,-30 8.5,-56 116.5,-56 116.5,-30 8.5,-30"/>
<text text-anchor="start" x="15.5" y="-40.2" font-family="Helvetica,sans-Serif" font-size="11.00">cidade</text>
<polygon fill="none" stroke="black" points="116.5,-30 116.5,-56 215.5,-56 215.5,-30 116.5,-30"/>
<text text-anchor="start" x="123.5" y="-40.2" font-family="Helvetica,sans-Serif" font-size="11.00">varchar(80)</text>
<polygon fill="none" stroke="black" points="8.5,-4 8.5,-30 116.5,-30 116.5,-4 8.5,-4"/>
<text text-anchor="start" x="15.5" y="-14.2" font-family="Helvetica,sans-Serif" font-size="11.00">estado</text>
<polygon fill="none" stroke="black" points="116.5,-4 116.5,-30 215.5,-30 215.5,-4 116.5,-4"/>
<text text-anchor="start" x="123.5" y="-14.2" font-family="Helvetica,sans-Serif" font-size="11.00">char(2)</text>
</g>
<!-- CLIENTES&#45;&gt;VENDAS -->
<g id="edge6" class="edge">
<title>CLIENTES&#45;&gt;VENDAS</title>
<path fill="none" stroke="#555555" d="M223.08,-121C248.98,-121 276.66,-121 302.84,-121"/>
<polygon fill="#555555" stroke="#555555" points="302.92,-121 310.92,-124.6 306.92,-121 310.92,-121 310.92,-121 310.92,-121 306.92,-121 310.92,-117.4 302.92,-121 302.92,-121"/>
<text text-anchor="middle" x="267" y="-123.8" font-family="Helvetica,sans-Serif" font-size="9.00">0 : N</text>
</g>
<!-- VENDAS&#45;&gt;ITENS_VENDA -->
<g id="edge7" class="edge">
<title>VENDAS&#45;&gt;ITENS_VENDA</title>
<path fill="none" stroke="#555555" d="M531.19,-200.82C557.57,-220.09 585.7,-240.66 611.9,-259.81"/>
<polygon fill="#555555" stroke="#555555" points="612.06,-259.93 616.4,-267.56 615.29,-262.29 618.52,-264.65 618.52,-264.65 618.52,-264.65 615.29,-262.29 620.65,-261.74 612.06,-259.93 612.06,-259.93"/>
<text text-anchor="middle" x="575" y="-238.8" font-family="Helvetica,sans-Serif" font-size="9.00">1 : N</text>
</g>
</g>
</svg>
